<?xml version="1.0" encoding="UTF-8" standalone="no"?>
<!DOCTYPE svg PUBLIC "-//W3C//DTD SVG 1.1//EN"
 "http://www.w3.org/Graphics/SVG/1.1/DTD/svg11.dtd">
<!-- Generated by graphviz version 2.38.0 (20140413.2041)
 -->
<!-- Title: G Pages: 1 -->
<svg width="788pt" height="572pt"
 viewBox="0.00 0.00 788.28 572.00" xmlns="http://www.w3.org/2000/svg" xmlns:xlink="http://www.w3.org/1999/xlink">
<g id="graph0" class="graph" transform="scale(1 1) rotate(0) translate(4 568)">
<title>G</title>
<polygon fill="white" stroke="none" points="-4,4 -4,-568 784.277,-568 784.277,4 -4,4"/>
<g id="clust1" class="cluster"><title>cluster_Global</title>
<path fill="none" stroke="gray" d="M74.6384,-44C74.6384,-44 760.277,-44 760.277,-44 766.277,-44 772.277,-50 772.277,-56 772.277,-56 772.277,-544 772.277,-544 772.277,-550 766.277,-556 760.277,-556 760.277,-556 74.6384,-556 74.6384,-556 68.6384,-556 62.6384,-550 62.6384,-544 62.6384,-544 62.6384,-56 62.6384,-56 62.6384,-50 68.6384,-44 74.6384,-44"/>
<text text-anchor="middle" x="417.458" y="-543.2" font-family="Times New Roman,serif" font-size="11.00" fill="gray">Global</text>
</g>
<g id="clust3" class="cluster"><title>cluster_\Test</title>
<path fill="none" stroke="gray" d="M337.277,-52C337.277,-52 752.277,-52 752.277,-52 758.277,-52 764.277,-58 764.277,-64 764.277,-64 764.277,-274 764.277,-274 764.277,-280 758.277,-286 752.277,-286 752.277,-286 337.277,-286 337.277,-286 331.277,-286 325.277,-280 325.277,-274 325.277,-274 325.277,-64 325.277,-64 325.277,-58 331.277,-52 337.277,-52"/>
<text text-anchor="middle" x="544.777" y="-273.2" font-family="Times New Roman,serif" font-size="11.00" fill="gray">Test</text>
</g>
<g id="clust2" class="cluster"><title>cluster_\Cls</title>
<path fill="none" stroke="gray" d="M82.6384,-294C82.6384,-294 738.777,-294 738.777,-294 744.777,-294 750.777,-300 750.777,-306 750.777,-306 750.777,-516 750.777,-516 750.777,-522 744.777,-528 738.777,-528 738.777,-528 82.6384,-528 82.6384,-528 76.6384,-528 70.6384,-522 70.6384,-516 70.6384,-516 70.6384,-306 70.6384,-306 70.6384,-300 76.6384,-294 82.6384,-294"/>
<text text-anchor="middle" x="410.708" y="-515.2" font-family="Times New Roman,serif" font-size="11.00" fill="gray">Cls</text>
</g>
<!-- \\Cls\\AirwaysBoardingCard -->
<g id="node1" class="node"><title>\\Cls\\AirwaysBoardingCard</title>
<polygon fill="none" stroke="black" points="742.777,-500 597.777,-500 597.777,-464 742.777,-464 742.777,-500"/>
<text text-anchor="middle" x="670.277" y="-479.2" font-family="Courier,monospace" font-size="11.00">AirwaysBoardingCard</text>
</g>
<!-- \\Cls\\tripAbstract -->
<g id="node5" class="node"><title>\\Cls\\tripAbstract</title>
<polygon fill="none" stroke="black" points="471.777,-446 373.777,-446 373.777,-410 471.777,-410 471.777,-446"/>
<text text-anchor="start" x="388.777" y="-431.2" font-family="Courier,monospace" font-size="11.00">«abstract»</text>
<text text-anchor="start" x="381.777" y="-419.2" font-family="Courier,monospace" font-size="11.00">tripAbstract</text>
</g>
<!-- \\Cls\\AirwaysBoardingCard&#45;&gt;\\Cls\\tripAbstract -->
<g id="edge1" class="edge"><title>\\Cls\\AirwaysBoardingCard&#45;&gt;\\Cls\\tripAbstract</title>
<path fill="none" stroke="black" d="M597.608,-466.236C560.768,-458.132 516.455,-448.386 481.791,-440.761"/>
<polygon fill="none" stroke="black" points="482.343,-437.299 471.825,-438.569 480.839,-444.135 482.343,-437.299"/>
</g>
<!-- \\Cls\\BusBoardingCard -->
<g id="node2" class="node"><title>\\Cls\\BusBoardingCard</title>
<polygon fill="none" stroke="black" points="729.277,-446 611.277,-446 611.277,-410 729.277,-410 729.277,-446"/>
<text text-anchor="middle" x="670.277" y="-425.2" font-family="Courier,monospace" font-size="11.00">BusBoardingCard</text>
</g>
<!-- \\Cls\\BusBoardingCard&#45;&gt;\\Cls\\tripAbstract -->
<g id="edge2" class="edge"><title>\\Cls\\BusBoardingCard&#45;&gt;\\Cls\\tripAbstract</title>
<path fill="none" stroke="black" d="M611.097,-428C572.179,-428 521.155,-428 482.189,-428"/>
<polygon fill="none" stroke="black" points="482.049,-424.5 472.049,-428 482.048,-431.5 482.049,-424.5"/>
</g>
<!-- \\Cls\\CardSort -->
<g id="node3" class="node"><title>\\Cls\\CardSort</title>
<polygon fill="none" stroke="black" points="705.777,-392 634.777,-392 634.777,-356 705.777,-356 705.777,-392"/>
<text text-anchor="middle" x="670.277" y="-371.2" font-family="Courier,monospace" font-size="11.00">CardSort</text>
</g>
<!-- \\Cls\\RailwayBoardingCard -->
<g id="node4" class="node"><title>\\Cls\\RailwayBoardingCard</title>
<polygon fill="none" stroke="black" points="742.777,-338 597.777,-338 597.777,-302 742.777,-302 742.777,-338"/>
<text text-anchor="middle" x="670.277" y="-317.2" font-family="Courier,monospace" font-size="11.00">RailwayBoardingCard</text>
</g>
<!-- \\Cls\\RailwayBoardingCard&#45;&gt;\\Cls\\tripAbstract -->
<g id="edge3" class="edge"><title>\\Cls\\RailwayBoardingCard&#45;&gt;\\Cls\\tripAbstract</title>
<path fill="none" stroke="black" d="M608.487,-338.002C600.276,-340.813 592.018,-343.841 584.277,-347 542.588,-364.013 496.917,-387.573 464.991,-404.9"/>
<polygon fill="none" stroke="black" points="463.052,-401.97 455.955,-409.836 466.408,-408.113 463.052,-401.97"/>
</g>
<!-- \\Cls\\tripInterface -->
<g id="node6" class="node"><title>\\Cls\\tripInterface</title>
<polygon fill="none" stroke="black" points="182.638,-446 78.6384,-446 78.6384,-410 182.638,-410 182.638,-446"/>
<text text-anchor="middle" x="130.638" y="-425.2" font-family="Courier,monospace" font-size="11.00">tripInterface</text>
</g>
<!-- \\Cls\\tripAbstract&#45;&gt;\\Cls\\tripInterface -->
<g id="edge4" class="edge"><title>\\Cls\\tripAbstract&#45;&gt;\\Cls\\tripInterface</title>
<path fill="none" stroke="black" stroke-dasharray="1,5" d="M373.541,-428C324.039,-428 246.854,-428 193.027,-428"/>
<polygon fill="none" stroke="black" points="192.924,-424.5 182.924,-428 192.924,-431.5 192.924,-424.5"/>
</g>
<!-- \\Test\\AbstractBoardingCardTest -->
<g id="node7" class="node"><title>\\Test\\AbstractBoardingCardTest</title>
<polygon fill="none" stroke="black" points="512.277,-177 333.277,-177 333.277,-141 512.277,-141 512.277,-177"/>
<text text-anchor="start" x="388.777" y="-162.2" font-family="Courier,monospace" font-size="11.00">«abstract»</text>
<text text-anchor="start" x="341.277" y="-150.2" font-family="Courier,monospace" font-size="11.00">AbstractBoardingCardTest</text>
</g>
<!-- \\PHPUnit_Framework_TestCase -->
<g id="node12" class="node"><title>\\PHPUnit_Framework_TestCase</title>
<ellipse fill="none" stroke="black" cx="130.638" cy="-18" rx="130.777" ry="18"/>
<text text-anchor="middle" x="130.638" y="-14.3" font-family="Times New Roman,serif" font-size="14.00" fill="gray">\PHPUnit_Framework_TestCase</text>
</g>
<!-- \\Test\\AbstractBoardingCardTest&#45;&gt;\\PHPUnit_Framework_TestCase -->
<g id="edge5" class="edge"><title>\\Test\\AbstractBoardingCardTest&#45;&gt;\\PHPUnit_Framework_TestCase</title>
<path fill="none" stroke="black" d="M384.736,-140.999C331.626,-115.189 233.952,-67.7218 176.717,-39.907"/>
<polygon fill="none" stroke="black" points="178.073,-36.6746 167.549,-35.4515 175.013,-42.9705 178.073,-36.6746"/>
</g>
<!-- \\Test\\AirwaysBoardingCardTest -->
<g id="node8" class="node"><title>\\Test\\AirwaysBoardingCardTest</title>
<polygon fill="none" stroke="black" points="756.277,-258 584.277,-258 584.277,-222 756.277,-222 756.277,-258"/>
<text text-anchor="middle" x="670.277" y="-237.2" font-family="Courier,monospace" font-size="11.00">AirwaysBoardingCardTest</text>
</g>
<!-- \\Test\\AirwaysBoardingCardTest&#45;&gt;\\Test\\AbstractBoardingCardTest -->
<g id="edge6" class="edge"><title>\\Test\\AirwaysBoardingCardTest&#45;&gt;\\Test\\AbstractBoardingCardTest</title>
<path fill="none" stroke="black" d="M612.081,-221.978C602.779,-219.005 593.254,-215.936 584.277,-213 552.017,-202.45 516.211,-190.433 486.62,-180.418"/>
<polygon fill="none" stroke="black" points="487.431,-176.998 476.836,-177.104 485.184,-183.628 487.431,-176.998"/>
</g>
<!-- \\Test\\BusBoardingCardTest -->
<g id="node9" class="node"><title>\\Test\\BusBoardingCardTest</title>
<polygon fill="none" stroke="black" points="742.777,-204 597.777,-204 597.777,-168 742.777,-168 742.777,-204"/>
<text text-anchor="middle" x="670.277" y="-183.2" font-family="Courier,monospace" font-size="11.00">BusBoardingCardTest</text>
</g>
<!-- \\Test\\BusBoardingCardTest&#45;&gt;\\Test\\AbstractBoardingCardTest -->
<g id="edge7" class="edge"><title>\\Test\\BusBoardingCardTest&#45;&gt;\\Test\\AbstractBoardingCardTest</title>
<path fill="none" stroke="black" d="M597.608,-178.118C574.223,-175.546 547.827,-172.643 522.799,-169.89"/>
<polygon fill="none" stroke="black" points="522.866,-166.377 512.544,-168.763 522.101,-173.335 522.866,-166.377"/>
</g>
<!-- \\Test\\CardSortTest -->
<g id="node10" class="node"><title>\\Test\\CardSortTest</title>
<polygon fill="none" stroke="black" points="719.277,-96 621.277,-96 621.277,-60 719.277,-60 719.277,-96"/>
<text text-anchor="middle" x="670.277" y="-75.2" font-family="Courier,monospace" font-size="11.00">CardSortTest</text>
</g>
<!-- \\Test\\CardSortTest&#45;&gt;\\PHPUnit_Framework_TestCase -->
<g id="edge8" class="edge"><title>\\Test\\CardSortTest&#45;&gt;\\PHPUnit_Framework_TestCase</title>
<path fill="none" stroke="black" d="M621.092,-72.6226C536.442,-63.1758 358.995,-43.3728 242.633,-30.387"/>
<polygon fill="none" stroke="black" points="242.945,-26.9001 232.619,-29.2693 242.169,-33.8569 242.945,-26.9001"/>
</g>
<!-- \\Test\\RailwayBoardingCardTest -->
<g id="node11" class="node"><title>\\Test\\RailwayBoardingCardTest</title>
<polygon fill="none" stroke="black" points="756.277,-150 584.277,-150 584.277,-114 756.277,-114 756.277,-150"/>
<text text-anchor="middle" x="670.277" y="-129.2" font-family="Courier,monospace" font-size="11.00">RailwayBoardingCardTest</text>
</g>
<!-- \\Test\\RailwayBoardingCardTest&#45;&gt;\\Test\\AbstractBoardingCardTest -->
<g id="edge9" class="edge"><title>\\Test\\RailwayBoardingCardTest&#45;&gt;\\Test\\AbstractBoardingCardTest</title>
<path fill="none" stroke="black" d="M584.102,-141.368C564.317,-143.543 543.091,-145.878 522.768,-148.113"/>
<polygon fill="none" stroke="black" points="522.113,-144.664 512.556,-149.236 522.878,-151.622 522.113,-144.664"/>
</g>
</g>
</svg>
